HIERARCHY
ROOT Hips
{
	OFFSET 0.00000 0.00000 0.00000
	CHANNELS 6 Xposition Yposition Zposition Zrotation Yrotation Xrotation 
	JOINT LHipJoint
	{
		OFFSET 0 0 0
		CHANNELS 3 Zrotation Yrotation Xrotation
		JOINT LeftHip
		{
			OFFSET 1.56741 -1.82513 0.67319
			CHANNELS 3 Zrotation Yrotation Xrotation
			JOINT LeftKnee
			{
				OFFSET 2.35708 -6.47604 0.00000
				CHANNELS 3 Zrotation Yrotation Xrotation
				JOINT LeftAnkle
				{
					OFFSET 2.70636 -7.43567 0.00000
					CHANNELS 3 Zrotation Yrotation Xrotation
					JOINT LeftToe
					{
						OFFSET 0.20427 -0.56122 2.08535
						CHANNELS 3 Zrotation Yrotation Xrotation
						End Site
						{
							OFFSET 0.00000 -0.00000 1.08535
						}
					}
				}
			}
		}
	}
	JOINT RHipJoint
	{
		OFFSET 0 0 0
		CHANNELS 3 Zrotation Yrotation Xrotation
		JOINT RightHip
		{
			OFFSET -1.51422 -1.82513 0.67319
			CHANNELS 3 Zrotation Yrotation Xrotation
			JOINT RightKnee
			{
				OFFSET -2.48824 -6.83638 0.00000
				CHANNELS 3 Zrotation Yrotation Xrotation
				JOINT RightAnkle
				{
					OFFSET -2.70033 -7.41909 0.00000
					CHANNELS 3 Zrotation Yrotation Xrotation
					JOINT RightToe
					{
						OFFSET -0.19750 -0.54263 2.22151
						CHANNELS 3 Zrotation Yrotation Xrotation
						End Site
						{
							OFFSET -0.00000 -0.00000 1.14915
						}
					}
				}
			}
		}
	}
	JOINT lowerback
	{
		OFFSET 0 0 0
		CHANNELS 3 Zrotation Yrotation Xrotation
		JOINT Chest
		{
			OFFSET -0.01567 2.12874 -0.15842
			CHANNELS 3 Zrotation Yrotation Xrotation
			JOINT Chest2
			{
				OFFSET 0.06098 2.13326 -0.01043
				CHANNELS 3 Zrotation Yrotation Xrotation
				JOINT lowerneck
				{
					OFFSET 0 0 0
					CHANNELS 3 Zrotation Yrotation Xrotation
					JOINT Neck
					{
						OFFSET -0.05040 1.78432 0.13387
						CHANNELS 3 Zrotation Yrotation Xrotation
						JOINT Head
						{
							OFFSET -0.00180 1.76880 -0.33303
							CHANNELS 3 Zrotation Yrotation Xrotation
							End Site
							{
								OFFSET 0.00734 1.81249 -0.12719
							}
						}
					}
				}
				JOINT LeftCollar
				{
					OFFSET 0 0 0
					CHANNELS 3 Zrotation Yrotation Xrotation
					JOINT LeftShoulder
					{
						OFFSET 3.72199 0.94188 -0.54317
CHANNELS 3 Zrotation Xrotation Yrotation
						JOINT LeftElbow
						{
OFFSET 0 -5.146010 0.000000
CHANNELS 3 Zrotation Xrotation Yrotation
							JOINT LeftWrist
							{
OFFSET 0 -3.644520 -0.000000
CHANNELS 3 Zrotation Xrotation Yrotation
								JOINT lhand
								{
									OFFSET 0 0 0
CHANNELS 3 Zrotation Xrotation Yrotation
									JOINT LFingers
									{
OFFSET 0 -0.562280 0.000000
CHANNELS 3 Zrotation Xrotation Yrotation
										End Site
										{
OFFSET 0 -0.453320 0.000000
										}
									}
								}
								JOINT LThumb
								{
OFFSET 0 0.000000 0.000000
CHANNELS 3 Zrotation Xrotation Yrotation
									End Site
									{
OFFSET 0 -0.460250 0.460250
									}
								}
							}
						}
					}
				}
				JOINT RightCollar
				{
					OFFSET 0 0 0
					CHANNELS 3 Zrotation Yrotation Xrotation
					JOINT RightShoulder
					{
						OFFSET -3.30253 1.22679 -0.46941
CHANNELS 3 Zrotation Xrotation Yrotation
						JOINT RightElbow
						{
OFFSET 0 -5.339130 0.000000
CHANNELS 3 Zrotation Xrotation Yrotation
							JOINT RightWrist
							{
OFFSET 0 -3.564780 -0.000000
CHANNELS 3 Zrotation Xrotation Yrotation
								JOINT rhand
								{
									OFFSET 0 0 0
CHANNELS 3 Zrotation Xrotation Yrotation
									JOINT RFingers
									{
OFFSET 0 -0.857470 0.000000
CHANNELS 3 Zrotation Xrotation Yrotation
										End Site
										{
OFFSET 0 -0.691320 0.000000
										}
									}
								}
								JOINT RThumb
								{
OFFSET 0 0.000000 0.000000
CHANNELS 3 Zrotation Xrotation Yrotation
									End Site
									{
OFFSET 0 -0.701870 0.701870
									}
								}
							}
						}
					}
				}
			}
		}
	}
}
MOTION
Frames: 10
Frame Time: 0.008333333333333333
1.584322 15.754215 33.406811 -1255.916761 -201.677027 1272.648130 0.000000 0.000000 0.000000 5.020107 -20.503577 -62.064265 14.139989 19.153330 72.629387 -0.058997 -7.143980 -3.479958 1.357996 -7.365730 -20.808491 0.000000 0.000000 0.000000 20.938293 7.205733 -51.668883 -12.615750 -18.639009 67.927599 -1.319153 -6.892328 -25.180510 -0.490067 -4.485554 12.447507 -0.081138 1.938233 34.650042 1.313247 2.740957 7.284866 0.373251 1.340036 -9.563613 -4.534798 17.188689 -11.223395 -18.627695 26.340108 7.624315 -2.489080 11.790762 6.211346 0.000000 0.000000 0.000000 23.774311 -13.758721 9.611183 38.214255 -46.975534 17.122081 35.420405 29.278764 -30.925968 0.000000 0.000000 0.000000 -7.125000 0.000000 0.000000 5.507930 66.224125 -2.823709 0.000000 0.000000 0.000000 -17.944074 -2.167845 -10.097153 -66.290989 -57.765672 -39.621402 -32.221875 24.054689 8.104163 0.000000 0.000000 0.000000 7.125000 0.000000 0.000000 -4.686227 39.492716 -0.637600
0.966903 15.793768 33.230395 -1254.870568 -207.609556 1274.051953 0.000000 0.000000 0.000000 -1.054075 -14.680606 -60.297815 19.962167 19.999654 89.889360 -0.217260 -9.029107 -0.644118 1.900773 -8.655874 -24.724876 0.000000 0.000000 0.000000 22.228307 5.115905 -53.928815 -12.096668 -18.431171 66.294720 -1.095832 -8.453194 -24.525570 -0.906752 -6.067931 16.981640 -0.078627 1.438369 34.358612 0.939104 2.117749 6.831609 0.209240 1.069697 -9.932903 -3.689495 17.374541 -10.840937 -19.699093 26.579877 7.259142 -2.874314 11.928870 6.320707 0.000000 0.000000 0.000000 23.678280 -13.141188 9.727707 38.054128 -46.873800 17.005089 34.856173 30.292522 -33.609042 0.000000 0.000000 0.000000 -7.125000 0.000000 0.000000 3.531283 68.953919 -2.026582 0.000000 0.000000 0.000000 -17.077825 -1.808417 -9.775709 -67.718943 -58.038443 -40.831158 -32.587193 24.182811 8.181359 0.000000 0.000000 0.000000 7.125000 0.000000 0.000000 -5.007453 39.615449 -0.666517
0.385516 15.873524 33.057467 -1254.831736 -212.993684 1275.961519 0.000000 0.000000 0.000000 -6.666041 -7.183338 -53.624265 21.534373 19.943461 94.490176 0.326301 -11.366795 20.104220 0.772212 -5.595487 -15.619093 0.000000 0.000000 0.000000 23.569958 6.092309 -56.187602 -11.245506 -18.053032 63.576218 -0.690408 -11.962467 -24.220097 -1.683854 -8.173840 23.243371 0.347553 0.954399 33.399802 1.227392 1.717081 6.491035 0.449321 0.887297 -9.939772 -4.447772 17.373902 -11.551393 -19.222485 26.669369 7.154448 -2.597978 11.960249 6.244258 0.000000 0.000000 0.000000 23.377900 -12.658662 9.736261 38.288550 -47.022593 17.176418 32.679433 28.036466 -31.736981 0.000000 0.000000 0.000000 -7.125000 0.000000 0.000000 1.311617 66.285369 -0.676252 0.000000 0.000000 0.000000 -16.939098 -2.148571 -9.574922 -67.458760 -57.990255 -40.610424 -32.269322 24.919493 8.244895 0.000000 0.000000 0.000000 7.125000 0.000000 0.000000 -4.727742 39.661418 -0.624057
-0.097815 15.893099 32.836966 -1253.755342 -217.738653 1278.349633 0.000000 0.000000 0.000000 -15.013233 1.567472 -44.498622 18.516643 19.946722 85.659251 2.919227 -15.444156 40.479855 1.870482 -8.587840 -24.516343 0.000000 0.000000 0.000000 23.550767 5.671689 -59.821171 -10.861375 -17.866587 62.330506 -0.046203 -15.186310 -22.030063 -1.306456 -7.239953 20.428521 0.838613 0.189281 32.491903 1.384779 0.950053 6.035520 0.645096 0.529623 -10.075198 -4.566485 17.344336 -11.130811 -19.395208 26.499883 6.509250 -2.719674 11.975320 5.964445 0.000000 0.000000 0.000000 23.007371 -11.910749 9.449626 38.459229 -47.130105 17.301399 33.721883 28.442844 -30.551953 0.000000 0.000000 0.000000 -7.125000 0.000000 0.000000 3.264814 65.315020 -1.603937 0.000000 0.000000 0.000000 -16.881979 -2.003207 -9.291399 -67.780515 -58.049779 -40.883355 -32.236838 24.586179 8.085680 0.000000 0.000000 0.000000 7.125000 0.000000 0.000000 -4.699405 39.472473 -0.641788
-0.606821 15.711233 32.525089 -1253.213289 -222.035778 1279.770735 0.000000 0.000000 0.000000 -23.052392 9.062123 -39.523709 15.054606 19.402943 75.400979 1.551328 -14.149407 32.311870 0.332284 -3.640116 -10.073673 0.000000 0.000000 0.000000 23.833611 5.542737 -63.738925 -11.039268 -17.954216 62.909070 0.312946 -17.356806 -21.537929 -1.517820 -7.779756 22.047114 1.361683 -0.225104 31.963868 1.797449 0.661023 5.689866 0.909283 0.389697 -10.244830 -4.187264 17.276320 -11.330051 -18.886009 26.385579 6.890832 -2.602534 11.905242 6.078228 0.000000 0.000000 0.000000 23.410345 -12.058156 9.581258 38.579780 -47.205547 17.389803 33.646535 28.699160 -31.139970 0.000000 0.000000 0.000000 -7.125000 0.000000 0.000000 2.918960 65.928519 -1.473596 0.000000 0.000000 0.000000 -17.121666 -1.219734 -10.028969 -68.969264 -58.260984 -41.893191 -32.329784 24.155864 8.176388 0.000000 0.000000 0.000000 7.125000 0.000000 0.000000 -4.780238 39.586254 -0.640632
-1.210197 15.498101 32.166897 -1252.278982 -227.663033 1280.173122 0.000000 0.000000 0.000000 -24.711657 5.606119 -34.802622 14.266510 19.192849 73.016798 -1.206868 -19.099098 8.868258 1.020293 -6.408326 -17.980126 0.000000 0.000000 0.000000 23.501097 4.618674 -67.413918 -11.323103 -18.089623 63.826540 0.785671 -20.351398 -21.736024 -2.289742 -9.438674 27.182572 0.975770 -0.337965 31.612361 2.947840 0.575715 6.157647 2.424329 0.396681 -9.852858 -3.335615 16.536647 -12.319473 -18.453686 25.515963 7.879019 -2.556390 11.362720 6.535195 0.000000 0.000000 0.000000 23.417903 -14.277103 8.829656 37.955266 -46.810627 16.932993 35.330884 31.920808 -33.559981 0.000000 0.000000 0.000000 -7.125000 0.000000 0.000000 4.291253 69.051992 -2.475644 0.000000 0.000000 0.000000 -18.552474 -0.478205 -11.650856 -68.734402 -58.220318 -41.693506 -32.387105 24.169217 8.085530 0.000000 0.000000 0.000000 7.125000 0.000000 0.000000 -4.831069 39.485179 -0.658695
-1.834867 15.166839 31.798900 -1253.420768 -231.125935 1279.053589 0.000000 0.000000 0.000000 -23.784787 0.356202 -34.417320 15.165763 19.430236 75.735345 -0.388590 -18.979852 -9.637799 1.983494 -8.831558 -25.269776 0.000000 0.000000 0.000000 24.883735 4.605129 -71.021036 -11.657648 -18.242200 64.899482 1.177204 -22.394301 -21.591128 -2.984061 -10.669108 31.171930 0.961232 0.360653 31.946144 3.213977 1.515172 6.038183 2.307127 0.833018 -9.925021 -2.374864 16.396039 -12.597555 -18.204096 25.199383 8.042061 -2.603677 11.213083 6.685155 0.000000 0.000000 0.000000 25.457251 -13.726205 7.474197 37.695603 -46.643770 16.743887 34.387879 30.256573 -34.212360 0.000000 0.000000 0.000000 -7.125000 0.000000 0.000000 2.488815 69.451056 -1.457633 0.000000 0.000000 0.000000 -18.595649 0.124297 -13.095144 -66.130143 -57.733676 -39.485377 -33.077253 23.216028 7.457825 0.000000 0.000000 0.000000 7.125000 0.000000 0.000000 -5.428564 38.805206 -0.831345
-2.427469 14.787188 31.432571 -1254.044674 -233.232002 1277.642070 0.000000 0.000000 0.000000 -22.529904 -3.679585 -36.047094 16.669392 19.731718 80.219913 0.564565 -18.194923 -17.445900 2.329195 -9.520095 -27.436580 0.000000 0.000000 0.000000 25.643894 4.287278 -74.412790 -12.128763 -18.444502 66.396330 1.358538 -23.141002 -21.178007 -3.564627 -11.556846 34.182510 0.528167 0.803214 33.539872 3.073819 1.978877 6.100612 2.198360 1.064726 -10.513802 -4.119446 16.253288 -13.895323 -17.142927 25.237496 8.053984 -2.014801 11.189114 6.546720 0.000000 0.000000 0.000000 25.643437 -12.971535 9.284115 36.127478 -45.600607 15.613520 35.660568 28.332381 -33.584301 0.000000 0.000000 0.000000 -7.125000 0.000000 0.000000 4.792886 69.182177 -2.781761 0.000000 0.000000 0.000000 -18.443700 -0.728056 -13.763992 -63.080582 -57.076379 -36.915932 -32.392134 23.245144 8.439241 0.000000 0.000000 0.000000 7.125000 0.000000 0.000000 -4.835839 39.899993 -0.610244
-2.920550 14.369340 31.146575 -1253.657796 -235.380957 1276.623038 0.000000 0.000000 0.000000 -20.789612 -3.979183 -39.074834 18.554857 19.949751 85.771178 0.453158 -22.590736 -19.063270 2.171238 -9.207973 -26.452371 0.000000 0.000000 0.000000 25.966333 3.192748 -77.523395 -12.882528 -18.739342 68.760351 1.482811 -23.775875 -21.244394 -3.983680 -12.138537 36.224066 -0.424998 1.014163 33.903393 3.350782 1.999735 6.861775 2.991242 1.117709 -9.853306 -4.070000 16.884232 -13.616782 -18.473631 26.319237 7.947352 -2.254715 11.659338 6.753168 0.000000 0.000000 0.000000 24.302531 -13.170206 12.257415 34.348417 -44.341063 14.356036 31.591248 23.118919 -29.605147 0.000000 0.000000 0.000000 -7.125000 0.000000 0.000000 0.816519 63.683089 -0.370105 0.000000 0.000000 0.000000 -19.676366 -1.749389 -14.050122 -58.912771 -56.013205 -33.438042 -32.229130 21.207538 8.710616 0.000000 0.000000 0.000000 7.125000 0.000000 0.000000 -4.691714 40.202890 -0.556229
-3.338888 13.985859 30.876749 -1253.224341 -237.426102 1275.335175 0.000000 0.000000 0.000000 -20.227271 -4.722381 -40.683872 20.020723 19.999900 90.060547 0.816651 -23.623032 -21.906819 1.680228 -8.164938 -23.216547 0.000000 0.000000 0.000000 25.599202 2.285270 -79.953962 -13.526503 -18.964053 70.753026 1.784433 -25.076011 -20.921945 -4.198051 -12.419372 37.232276 -0.513233 1.175459 34.927522 3.356059 2.222829 7.062943 2.941501 1.237188 -10.032450 -3.950994 16.977566 -13.532746 -18.124854 26.480516 8.480602 -2.137736 11.711365 6.884613 0.000000 0.000000 0.000000 23.741478 -12.774629 12.818752 33.799951 -43.935912 13.974079 31.230930 22.151477 -29.197144 0.000000 0.000000 0.000000 -7.125000 0.000000 0.000000 0.527891 63.146028 -0.239265 0.000000 0.000000 0.000000 -19.196867 -1.070887 -16.383820 -55.352960 -54.938811 -30.504723 -33.880145 21.023293 8.408196 0.000000 0.000000 0.000000 7.125000 0.000000 0.000000 -6.150902 40.001805 -0.761267
